# xmcd
#
# Track frame offsets: 
#        150
#        16629
#        28843
#        45150
#        58752
#        71917
#        87376
#        105296
#        125180
#        141177
#        158314
#        170280
#        188945
#        213382
#        230118
#        246267
#
# Disc length: 3483 seconds
#
# Revision: 0
# Processed by: cddbd v1.5.2PL0 Copyright (c) Steve Scherf et al.
# Submitted via: ExactAudioCopy v1.0b1
#
DISCID=d80d9910
DTITLE=Sinfonico Honolulu Ukulele Orchestra - Absolutely Live
DYEAR=2011
DGENRE=Pop
TTITLE0=The man who sold the world
TTITLE1=Flowers on the Wall
TTITLE2=These boots are made for walking
TTITLE3=Paint it black
TTITLE4=Eleanor Rigby
TTITLE5=California Girl
TTITLE6=Close to me
TTITLE7=Space oddity
TTITLE8=Allright
TTITLE9=Satellite of love
TTITLE10=Paperback writer
TTITLE11=Symphaty for the devil
TTITLE12=Take on me
TTITLE13=Enjoy the silence
TTITLE14=Hey yah
TTITLE15=Have you ever seen the rain
EXTD=
EXTT0=
EXTT1=
EXTT2=
EXTT3=
EXTT4=
EXTT5=
EXTT6=
EXTT7=
EXTT8=
EXTT9=
EXTT10=
EXTT11=
EXTT12=
EXTT13=
EXTT14=
EXTT15=
PLAYORDER=
